<svg width="49" height="49" viewBox="0 0 49 49" fill="none" xmlns="http://www.w3.org/2000/svg">
<path d="M31.382 19.1336L19.136 31.3796C18.7176 31.798 18.0236 31.798 17.6052 31.3796C17.1868 30.9612 17.1868 30.2673 17.6052 29.8489L29.8513 17.6028C30.2697 17.1844 30.9636 17.1844 31.382 17.6028C31.8004 18.0212 31.8004 18.7152 31.382 19.1336Z" fill="white"/>
<path d="M31.382 31.3815C30.9636 31.7999 30.2697 31.7999 29.8513 31.3815L17.6052 19.1355C17.1868 18.7171 17.1868 18.0231 17.6052 17.6047C18.0236 17.1863 18.7176 17.1863 19.136 17.6047L31.382 29.8508C31.8004 30.2692 31.8004 30.9631 31.382 31.3815Z" fill="white"/>
</svg>
