<svg width="69" height="69" viewBox="0 0 69 69" fill="none" xmlns="http://www.w3.org/2000/svg">
<path d="M34.5 65.4062C17.4513 65.4062 3.59375 51.5487 3.59375 34.5C3.59375 17.4513 17.4513 3.59375 34.5 3.59375C51.5487 3.59375 65.4062 17.4513 65.4062 34.5C65.4062 51.5487 51.5487 65.4062 34.5 65.4062ZM34.5 7.90625C19.8375 7.90625 7.90625 19.8375 7.90625 34.5C7.90625 49.1625 19.8375 61.0938 34.5 61.0938C49.1625 61.0938 61.0938 49.1625 61.0938 34.5C61.0938 19.8375 49.1625 7.90625 34.5 7.90625Z" fill="#51C0FF"/>
<path d="M30.422 44.7911C29.847 44.7911 29.3008 44.5611 28.8983 44.1586L20.762 36.0224C19.9283 35.1886 19.9283 33.8086 20.762 32.9749C21.5958 32.1411 22.9758 32.1411 23.8095 32.9749L30.422 39.5874L45.1995 24.8099C46.0333 23.9761 47.4133 23.9761 48.247 24.8099C49.0808 25.6436 49.0808 27.0236 48.247 27.8574L31.9458 44.1586C31.5433 44.5611 30.997 44.7911 30.422 44.7911Z" fill="#51C0FF"/>
</svg>
