<svg width="20" height="20" viewBox="0 0 20 20" fill="none" xmlns="http://www.w3.org/2000/svg">
<path d="M10 20C8.02219 20 6.0888 19.4135 4.4443 18.3147C2.79981 17.2159 1.51809 15.6541 0.761209 13.8268C0.00433197 11.9996 -0.193701 9.98889 0.192153 8.04909C0.578006 6.10928 1.53042 4.32745 2.92894 2.92893C4.80431 1.05357 7.34784 -1.97602e-08 10 0C12.6522 1.97601e-08 15.1957 1.05357 17.0711 2.92893C18.9464 4.80429 20 7.34783 20 9.99999C20 12.6522 18.9464 15.1957 17.0711 17.0711C16.1446 18.0025 15.0427 18.741 13.8289 19.2438C12.6152 19.7465 11.3138 20.0036 10 20ZM10 1.33335C5.22123 1.33335 1.33337 5.22121 1.33337 9.99999C1.33337 14.7788 5.22123 18.6666 10 18.6666C14.7788 18.6666 18.6666 14.7788 18.6666 9.99999C18.6666 5.22121 14.7788 1.33335 10 1.33335Z" fill="white"/>
<path d="M9.9974 13.6121L4.85938 8.474L5.80212 7.53125L9.9974 11.7264L14.1927 7.53125L15.1354 8.474L9.9974 13.6121Z" fill="white"/>
</svg>
