<svg width="30" height="30" viewBox="0 0 30 30" fill="none" xmlns="http://www.w3.org/2000/svg">
<path d="M15 29.9999C12.0333 30 9.1332 29.1202 6.66646 27.472C4.19972 25.8238 2.27713 23.4811 1.14181 20.7402C0.00649796 17.9993 -0.290551 14.9833 0.288229 12.0736C0.86701 9.16392 2.29562 6.49118 4.39342 4.39339C7.20646 1.58035 11.0218 -2.96402e-08 15 0C18.9783 2.96402e-08 22.7936 1.58035 25.6066 4.39339C28.4196 7.20644 30 11.0217 30 15C30 18.9782 28.4196 22.7935 25.6066 25.6066C24.217 27.0038 22.564 28.1116 20.7434 28.8657C18.9227 29.6198 16.9706 30.0053 15 29.9999ZM15 2.00003C7.83184 2.00003 2.00005 7.83182 2.00005 15C2.00005 22.1682 7.83184 28 15 28C22.1682 28 28 22.1682 28 15C28 7.83182 22.1682 2.00003 15 2.00003Z" fill="white"/>
<path d="M14.9961 20.4181L7.28906 12.711L8.70318 11.2969L14.9961 17.5897L21.289 11.2969L22.7031 12.711L14.9961 20.4181Z" fill="white"/>
</svg>
