<svg width="70" height="70" viewBox="0 0 70 70" fill="none" xmlns="http://www.w3.org/2000/svg">
<path d="M51.0091 24.0467L47.9102 14.841C47.3633 13.1092 45.7227 11.8332 43.8086 11.8332H15.0977C13.1836 11.8332 11.543 13.1092 10.9961 14.841L6.34765 28.6951C6.16536 29.1509 6.16536 29.6066 6.16536 30.0623V54.1248C6.16536 56.5858 8.07943 58.4998 10.5404 58.4998H46.9987C56.6602 58.4998 64.4987 50.6613 64.4987 40.9998C64.4987 32.7967 58.7565 25.8696 51.0091 24.0467ZM31.6862 16.2082H43.8086L46.2695 23.591C41.7122 23.7733 37.6107 25.6873 34.6029 28.604H31.6862V16.2082ZM15.0977 16.2082H27.3112V28.604H10.9961L15.0977 16.2082ZM10.5404 54.1248V32.979H31.4128C30.1367 35.4399 29.4987 38.1743 29.4987 40.9998C29.4987 46.2863 31.7773 50.9347 35.4232 54.1248H10.5404ZM46.9987 54.1248C39.707 54.1248 33.8737 48.2915 33.8737 40.9998C33.8737 33.7993 39.707 27.8748 46.9987 27.8748C54.1992 27.8748 60.1237 33.7993 60.1237 40.9998C60.1237 48.2915 54.1992 54.1248 46.9987 54.1248ZM52.832 35.4399C52.5586 35.1665 52.1029 35.1665 51.8294 35.4399L45.4492 41.729L42.7148 38.9035C42.4414 38.63 41.9857 38.63 41.7122 38.9035L39.9805 40.6353C39.707 40.9087 39.707 41.3644 39.9805 41.6379L44.9023 46.6509C45.1758 46.9243 45.6315 46.9243 45.9049 46.6509L54.5638 38.1743C54.8372 37.9009 54.8372 37.4451 54.5638 37.0806L52.832 35.4399Z" fill="#DD7373"/>
</svg>
