<svg width="70" height="70" viewBox="0 0 70 70" fill="none" xmlns="http://www.w3.org/2000/svg">
<path d="M58.1367 27.2368L49.0221 36.3514C48.5664 36.8071 47.8372 36.8071 47.4727 36.3514L45.6497 34.5285C45.194 34.1639 45.194 33.4347 45.6497 32.979L50.2982 28.604H12.9284C12.2904 28.604 11.8346 28.1483 11.8346 27.5103V25.3228C11.8346 24.7759 12.2904 24.229 12.9284 24.229H50.2982L45.6497 19.9451C45.194 19.4894 45.194 18.7603 45.6497 18.3957L47.4727 16.5728C47.8372 16.117 48.5664 16.117 49.0221 16.5728L58.1367 25.6873C58.5924 26.1431 58.5924 26.7811 58.1367 27.2368ZM12.1081 44.7368C11.6523 44.2811 11.6523 43.6431 12.1081 43.1873L21.2227 34.0728C21.6784 33.617 22.4076 33.617 22.7721 34.0728L24.5951 35.8957C25.0508 36.2603 25.0508 36.9894 24.5951 37.4451L19.9466 41.729H57.4076C57.9544 41.729 58.5013 42.2759 58.5013 42.8228V45.0103C58.5013 45.6483 57.9544 46.104 57.4076 46.104H19.9466L24.5951 50.479C25.0508 50.9347 25.0508 51.6639 24.5951 52.0285L22.7721 53.8514C22.4076 54.3071 21.6784 54.3071 21.2227 53.8514L12.1081 44.7368Z" fill="#DD7373"/>
</svg>
