<svg width="750" height="171" viewBox="0 0 750 171" fill="none" xmlns="http://www.w3.org/2000/svg">
<mask id="mask0_164_5794" style="mask-type:alpha" maskUnits="userSpaceOnUse" x="0" y="50" width="742" height="110">
<path d="M39.1094 90.793L51.9727 52.3477H77.8438L51.5391 117.459V158H26.3906V118.326L0.0136719 52.3477H26.1738L39.1094 90.793ZM135.945 158L131.971 137.404H109.135L105.16 158H77.916L103.643 52.3477H136.812L162.9 158H135.945ZM128.068 115.797L123.805 92.166C123.323 89.5163 122.865 86.9388 122.432 84.4336C122.046 81.9284 121.685 79.5436 121.348 77.2793C121.059 74.9668 120.794 72.8229 120.553 70.8477C120.36 72.7266 120.095 74.7982 119.758 77.0625C119.469 79.3268 119.107 81.7116 118.674 84.2168C118.24 86.6738 117.783 89.2272 117.301 91.877L112.82 115.797H128.068ZM212.764 158L194.553 86.9629H193.975C194.215 90.1426 194.408 93.2259 194.553 96.2129C194.745 99.1517 194.89 101.946 194.986 104.596C195.083 107.245 195.131 109.751 195.131 112.111V158H171.645V52.3477H206.115L222.52 115.797H222.953L239.43 52.3477H273.611V158H249.475V111.678C249.475 109.028 249.523 106.402 249.619 103.801C249.715 101.151 249.836 98.429 249.98 95.6348C250.125 92.8405 250.294 89.9499 250.486 86.9629H249.908L231.408 158H212.764ZM340.457 158L336.482 137.404H313.646L309.672 158H282.428L308.154 52.3477H341.324L367.412 158H340.457ZM332.58 115.797L328.316 92.166C327.835 89.5163 327.377 86.9388 326.943 84.4336C326.558 81.9284 326.197 79.5436 325.859 77.2793C325.57 74.9668 325.305 72.8229 325.064 70.8477C324.872 72.7266 324.607 74.7982 324.27 77.0625C323.98 79.3268 323.619 81.7116 323.186 84.2168C322.752 86.6738 322.294 89.2272 321.812 91.877L317.332 115.797H332.58ZM411.061 96.1406H447.916V153.086C442.472 155.254 436.908 156.868 431.223 157.928C425.586 158.939 419.805 159.445 413.879 159.445C405.207 159.445 397.836 157.326 391.766 153.086C385.743 148.846 381.143 142.656 377.963 134.514C374.783 126.372 373.193 116.495 373.193 104.885C373.193 93.5632 375 83.8796 378.613 75.834C382.227 67.7884 387.43 61.6217 394.223 57.334C401.016 52.998 409.206 50.8301 418.793 50.8301C424.237 50.8301 429.296 51.4564 433.969 52.709C438.69 53.9616 442.809 55.5514 446.326 57.4785L439.316 78.0742C436.426 76.2435 433.318 74.8464 429.994 73.8828C426.718 72.9193 423.273 72.4375 419.66 72.4375C415.18 72.4375 411.422 73.7383 408.387 76.3398C405.4 78.8932 403.135 82.627 401.594 87.541C400.1 92.4551 399.354 98.4772 399.354 105.607C399.354 112.545 399.956 118.398 401.16 123.168C402.365 127.938 404.147 131.551 406.508 134.008C408.917 136.465 411.88 137.693 415.396 137.693C416.697 137.693 417.998 137.597 419.299 137.404C420.648 137.163 421.949 136.874 423.201 136.537V117.17H411.061V96.1406ZM534.057 52.3477V122.156C534.057 130.298 532.684 137.139 529.938 142.68C527.191 148.22 523.169 152.411 517.869 155.254C512.57 158.048 506.066 159.445 498.357 159.445C487.132 159.445 478.508 156.41 472.486 150.34C466.464 144.27 463.453 135.092 463.453 122.807V52.3477H488.602V121.578C488.602 127.359 489.445 131.454 491.131 133.863C492.817 136.224 495.322 137.404 498.646 137.404C501.007 137.404 502.934 136.898 504.428 135.887C505.921 134.875 507.029 133.213 507.752 130.9C508.475 128.54 508.836 125.384 508.836 121.434V52.3477H534.057ZM589.484 72.4375C587.027 72.4375 584.835 73.2083 582.908 74.75C580.981 76.2435 579.367 78.4355 578.066 81.3262C576.766 84.1686 575.778 87.6374 575.104 91.7324C574.429 95.8275 574.092 100.452 574.092 105.607C574.092 112.738 574.694 118.688 575.898 123.457C577.151 128.227 579.006 131.792 581.463 134.152C583.92 136.513 587.003 137.693 590.713 137.693C594.133 137.693 597.41 137.043 600.541 135.742C603.721 134.441 606.9 132.876 610.08 131.045V153.592C606.708 155.567 603.046 157.036 599.096 158C595.193 158.964 591.05 159.445 586.666 159.445C578.283 159.445 571.201 157.374 565.42 153.23C559.687 149.087 555.327 142.993 552.34 134.947C549.401 126.902 547.932 117.074 547.932 105.463C547.932 97.321 548.823 89.9017 550.605 83.2051C552.436 76.5085 555.062 70.7513 558.482 65.9336C561.903 61.1159 566.022 57.4062 570.84 54.8047C575.706 52.1549 581.198 50.8301 587.316 50.8301C591.99 50.8301 596.47 51.4323 600.758 52.6367C605.094 53.8411 609.382 55.7201 613.621 58.2734L606.973 78.9414C604.178 76.9661 601.36 75.4004 598.518 74.2441C595.675 73.0397 592.664 72.4375 589.484 72.4375ZM698.533 158H673.385V113.918H651.055V158H625.906V52.3477H651.055V92.3105H673.385V52.3477H698.533V158ZM716.094 158V52.3477H741.242V158H716.094Z" fill="white"/>
</mask>
<g mask="url(#mask0_164_5794)">
<ellipse cx="382.5" cy="93.9998" rx="399.5" ry="261.111" fill="url(#paint0_linear_164_5794)"/>
</g>
<defs>
<linearGradient id="paint0_linear_164_5794" x1="382.5" y1="-167.111" x2="382.5" y2="355.111" gradientUnits="userSpaceOnUse">
<stop offset="0.284" stop-color="#DD7373"/>
<stop offset="0.914" stop-color="#FFDBC7"/>
</linearGradient>
</defs>
</svg>
