<svg width="125" height="45" viewBox="0 0 125 45" fill="none" xmlns="http://www.w3.org/2000/svg">
<path d="M33.2961 4.51701C33.0306 4.51701 32.7948 4.56923 32.5889 4.67367C32.386 4.77512 32.2145 4.92282 32.0742 5.11678C31.937 5.31074 31.8325 5.54498 31.7609 5.8195C31.6893 6.09402 31.6535 6.40286 31.6535 6.74601C31.6535 7.20852 31.7102 7.6039 31.8236 7.93213C31.9399 8.25738 32.119 8.50654 32.3607 8.67961C32.6024 8.84969 32.9142 8.93473 33.2961 8.93473C33.5617 8.93473 33.8273 8.90489 34.0929 8.84521C34.3614 8.78554 34.6523 8.70049 34.9657 8.59009V9.75382C34.6762 9.87318 34.3913 9.95822 34.1108 10.009C33.8303 10.0627 33.5155 10.0895 33.1663 10.0895C32.492 10.0895 31.937 9.95076 31.5013 9.67326C31.0686 9.39277 30.7479 9.00187 30.539 8.50057C30.3301 7.99628 30.2257 7.40845 30.2257 6.73706C30.2257 6.24173 30.2928 5.78817 30.4271 5.37638C30.5614 4.9646 30.7583 4.60802 31.0179 4.30664C31.2775 4.00526 31.5983 3.77251 31.9802 3.6084C32.3622 3.44428 32.8008 3.36222 33.2961 3.36222C33.6214 3.36222 33.9466 3.404 34.2719 3.48755C34.6001 3.56812 34.9134 3.68001 35.2118 3.82324L34.7642 4.95117C34.5196 4.8348 34.2734 4.73334 34.0257 4.64681C33.7781 4.56028 33.5349 4.51701 33.2961 4.51701ZM38.3181 4.90194C38.7806 4.90194 39.179 4.99145 39.5132 5.17049C39.8474 5.34654 40.1055 5.60316 40.2875 5.94035C40.4695 6.27753 40.5605 6.68932 40.5605 7.1757V7.83813H37.3334C37.3483 8.22306 37.4632 8.52593 37.6781 8.74674C37.8959 8.96457 38.1973 9.07349 38.5822 9.07349C38.9015 9.07349 39.1939 9.04066 39.4595 8.97502C39.725 8.90937 39.9981 8.8109 40.2786 8.67961V9.73592C40.0309 9.85826 39.7713 9.94778 39.4998 10.0045C39.2312 10.0612 38.9045 10.0895 38.5195 10.0895C38.0182 10.0895 37.5736 9.99702 37.1857 9.81201C36.8008 9.62701 36.4979 9.34502 36.2771 8.96606C36.0593 8.5871 35.9504 8.10967 35.9504 7.53377C35.9504 6.94892 36.0488 6.46254 36.2458 6.07463C36.4457 5.68373 36.7232 5.3913 37.0783 5.19735C37.4334 5.00041 37.8467 4.90194 38.3181 4.90194ZM38.3271 5.87321C38.0615 5.87321 37.8407 5.95825 37.6646 6.12834C37.4916 6.29842 37.3916 6.56548 37.3647 6.92952H39.2804C39.2775 6.72662 39.2402 6.54609 39.1685 6.38794C39.0999 6.22979 38.9955 6.10446 38.8552 6.01196C38.718 5.91946 38.5419 5.87321 38.3271 5.87321ZM44.4546 4.90194C45.0186 4.90194 45.4736 5.12126 45.8197 5.5599C46.1689 5.99854 46.3434 6.64157 46.3434 7.48901C46.3434 8.05596 46.2614 8.53339 46.0973 8.92131C45.9331 9.30623 45.7064 9.59717 45.4169 9.79411C45.1275 9.99105 44.7948 10.0895 44.4188 10.0895C44.1771 10.0895 43.9697 10.0597 43.7966 10C43.6236 9.93734 43.4759 9.85826 43.3535 9.76278C43.2312 9.66431 43.1252 9.55987 43.0357 9.44946H42.9641C42.988 9.56882 43.0059 9.69116 43.0178 9.81649C43.0298 9.94181 43.0357 10.0642 43.0357 10.1835V12.2021H41.6706V4.99593H42.7806L42.9731 5.64494H43.0357C43.1252 5.51066 43.2342 5.38683 43.3625 5.27344C43.4908 5.16005 43.6445 5.07053 43.8235 5.00488C44.0055 4.93625 44.2159 4.90194 44.4546 4.90194ZM44.016 5.99406C43.7772 5.99406 43.5878 6.04329 43.4475 6.14176C43.3073 6.24023 43.2043 6.38794 43.1387 6.58488C43.076 6.78182 43.0417 7.03098 43.0357 7.33236V7.48006C43.0357 7.80233 43.0656 8.07536 43.1252 8.29915C43.1879 8.52295 43.2909 8.69303 43.4341 8.80941C43.5803 8.92578 43.7802 8.98397 44.0339 8.98397C44.2427 8.98397 44.4143 8.92578 44.5486 8.80941C44.6829 8.69303 44.7828 8.52295 44.8485 8.29915C44.9171 8.07237 44.9514 7.79636 44.9514 7.47111C44.9514 6.98174 44.8753 6.61323 44.7231 6.36556C44.571 6.11789 44.3352 5.99406 44.016 5.99406ZM51.907 6.30737C51.907 6.57593 51.8219 6.80569 51.6519 6.99666C51.4848 7.18465 51.2371 7.3055 50.9089 7.35921V7.39502C51.255 7.43679 51.534 7.55764 51.7459 7.75757C51.9577 7.95451 52.0636 8.20367 52.0636 8.50505C52.0636 8.7915 51.989 9.04812 51.8398 9.2749C51.6906 9.4987 51.4534 9.67624 51.1282 9.80754C50.8029 9.93585 50.3777 10 49.8525 10H47.4714V4.99593H49.8525C50.2434 4.99593 50.5941 5.03771 50.9044 5.12126C51.2147 5.20182 51.4594 5.33759 51.6384 5.52856C51.8175 5.71954 51.907 5.97914 51.907 6.30737ZM50.6493 8.43343C50.6493 8.23649 50.5717 8.09475 50.4165 8.00822C50.2643 7.9187 50.0375 7.87394 49.7362 7.87394H48.8365V9.05558H49.763C50.0196 9.05558 50.2315 9.00784 50.3986 8.91235C50.5657 8.81687 50.6493 8.65723 50.6493 8.43343ZM50.5239 6.41479C50.5239 6.25963 50.4628 6.14475 50.3404 6.07015C50.2181 5.99555 50.0375 5.95825 49.7988 5.95825H48.8365V6.94743H49.6422C49.9316 6.94743 50.1509 6.90565 50.3001 6.8221C50.4493 6.73855 50.5239 6.60278 50.5239 6.41479ZM54.5567 4.99593V6.97428C54.5567 7.07574 54.5522 7.20405 54.5433 7.35921C54.5373 7.51139 54.5284 7.66656 54.5164 7.82471C54.5045 7.98286 54.4926 8.12459 54.4806 8.24992C54.4687 8.37524 54.4597 8.46029 54.4538 8.50505L56.7633 4.99593H58.406V10H57.0856V8.00374C57.0856 7.83963 57.0916 7.6591 57.1035 7.46216C57.1155 7.26223 57.1289 7.07425 57.1438 6.89819C57.1587 6.72214 57.1692 6.58936 57.1751 6.49984L54.8745 10H53.2363V4.99593H54.5567ZM61.8748 10.0895C61.3795 10.0895 60.9573 10 60.6082 9.82096C60.259 9.63894 59.9935 9.35845 59.8114 8.97949C59.6294 8.60053 59.5384 8.11564 59.5384 7.52482C59.5384 6.91311 59.6414 6.41479 59.8473 6.02987C60.0561 5.64195 60.3441 5.35699 60.7111 5.17497C61.0811 4.99295 61.5093 4.90194 61.9957 4.90194C62.3418 4.90194 62.6402 4.93625 62.8909 5.00488C63.1445 5.07053 63.3653 5.1496 63.5533 5.24211L63.1505 6.29842C62.9356 6.21189 62.7357 6.14176 62.5507 6.08805C62.3657 6.03136 62.1807 6.00301 61.9957 6.00301C61.757 6.00301 61.5585 6.05971 61.4004 6.1731C61.2422 6.2835 61.1244 6.4506 61.0468 6.6744C60.9692 6.89819 60.9304 7.17868 60.9304 7.51587C60.9304 7.84709 60.9722 8.12161 61.0557 8.33944C61.1393 8.55726 61.2601 8.71989 61.4183 8.82731C61.5764 8.93175 61.7689 8.98397 61.9957 8.98397C62.2792 8.98397 62.5313 8.94667 62.7521 8.87207C62.9729 8.79449 63.1878 8.68707 63.3966 8.5498V9.71802C63.1878 9.84931 62.9685 9.94331 62.7387 10C62.5119 10.0597 62.224 10.0895 61.8748 10.0895ZM64.1173 8.10221V6.98324H66.5208V8.10221H64.1173ZM72.9751 11.7948H71.7487V10H67.5145V4.99593H68.8796V8.97502H70.8759V4.99593H72.2455V9.00187H72.9751V11.7948ZM75.8889 4.90194C76.3514 4.90194 76.7498 4.99145 77.084 5.17049C77.4182 5.34654 77.6763 5.60316 77.8583 5.94035C78.0403 6.27753 78.1314 6.68932 78.1314 7.1757V7.83813H74.9042C74.9191 8.22306 75.034 8.52593 75.2489 8.74674C75.4667 8.96457 75.7681 9.07349 76.153 9.07349C76.4723 9.07349 76.7647 9.04066 77.0303 8.97502C77.2958 8.90937 77.5689 8.8109 77.8494 8.67961V9.73592C77.6017 9.85826 77.3421 9.94778 77.0706 10.0045C76.802 10.0612 76.4753 10.0895 76.0903 10.0895C75.589 10.0895 75.1444 9.99702 74.7565 9.81201C74.3716 9.62701 74.0687 9.34502 73.8479 8.96606C73.6301 8.5871 73.5212 8.10967 73.5212 7.53377C73.5212 6.94892 73.6196 6.46254 73.8166 6.07463C74.0165 5.68373 74.294 5.3913 74.6491 5.19735C75.0042 5.00041 75.4175 4.90194 75.8889 4.90194ZM75.8979 5.87321C75.6323 5.87321 75.4115 5.95825 75.2354 6.12834C75.0624 6.29842 74.9624 6.56548 74.9356 6.92952H76.8512C76.8483 6.72662 76.811 6.54609 76.7393 6.38794C76.6707 6.22979 76.5663 6.10446 76.426 6.01196C76.2888 5.91946 76.1127 5.87321 75.8979 5.87321ZM80.6065 4.99593V6.92057H82.5133V4.99593H83.8784V10H82.5133V7.9366H80.6065V10H79.2414V4.99593H80.6065ZM89.4509 6.02091H87.8127V10H86.4476V6.02091H84.8049V4.99593H89.4509V6.02091ZM93.1704 4.90194C93.7344 4.90194 94.1894 5.12126 94.5356 5.5599C94.8847 5.99854 95.0592 6.64157 95.0592 7.48901C95.0592 8.05596 94.9772 8.53339 94.8131 8.92131C94.649 9.30623 94.4222 9.59717 94.1327 9.79411C93.8433 9.99105 93.5106 10.0895 93.1346 10.0895C92.8929 10.0895 92.6855 10.0597 92.5125 10C92.3394 9.93734 92.1917 9.85826 92.0693 9.76278C91.947 9.66431 91.8411 9.55987 91.7515 9.44946H91.6799C91.7038 9.56882 91.7217 9.69116 91.7336 9.81649C91.7456 9.94181 91.7515 10.0642 91.7515 10.1835V12.2021H90.3864V4.99593H91.4964L91.6889 5.64494H91.7515C91.8411 5.51066 91.95 5.38683 92.0783 5.27344C92.2066 5.16005 92.3603 5.07053 92.5393 5.00488C92.7213 4.93625 92.9317 4.90194 93.1704 4.90194ZM92.7318 5.99406C92.4931 5.99406 92.3036 6.04329 92.1633 6.14176C92.0231 6.24023 91.9201 6.38794 91.8545 6.58488C91.7918 6.78182 91.7575 7.03098 91.7515 7.33236V7.48006C91.7515 7.80233 91.7814 8.07536 91.8411 8.29915C91.9037 8.52295 92.0067 8.69303 92.1499 8.80941C92.2961 8.92578 92.496 8.98397 92.7497 8.98397C92.9586 8.98397 93.1301 8.92578 93.2644 8.80941C93.3987 8.69303 93.4986 8.52295 93.5643 8.29915C93.6329 8.07237 93.6672 7.79636 93.6672 7.47111C93.6672 6.98174 93.5911 6.61323 93.439 6.36556C93.2868 6.11789 93.0511 5.99406 92.7318 5.99406Z" fill="white"/>
<mask id="mask0_164_5424" style="mask-type:alpha" maskUnits="userSpaceOnUse" x="0" y="19" width="124" height="19">
<path d="M6.51822 26.104L8.6621 19.6964H12.974L8.58984 30.5483V37.3052H4.39843V30.6929L0.00226974 19.6964H4.3623L6.51822 26.104ZM22.6575 37.3052L21.9951 33.8726H18.1891L17.5267 37.3052H12.986L17.2738 19.6964H22.8021L27.1501 37.3052H22.6575ZM21.3447 30.2713L20.6341 26.3328C20.5538 25.8912 20.4775 25.4616 20.4053 25.0441C20.341 24.6266 20.2808 24.2291 20.2246 23.8517C20.1764 23.4663 20.1323 23.109 20.0921 22.7798C20.06 23.0929 20.0158 23.4382 19.9596 23.8156C19.9115 24.193 19.8512 24.5904 19.779 25.008C19.7067 25.4175 19.6304 25.843 19.5501 26.2847L18.8034 30.2713H21.3447ZM35.4606 37.3052L32.4255 25.4657H32.3291C32.3692 25.9956 32.4014 26.5095 32.4255 27.0073C32.4576 27.4971 32.4817 27.9628 32.4977 28.4045C32.5138 28.8461 32.5218 29.2636 32.5218 29.6571V37.3052H28.6074V19.6964H34.3525L37.0866 30.2713H37.1588L39.9049 19.6964H45.6019V37.3052H41.5791V29.5848C41.5791 29.1432 41.5871 28.7056 41.6032 28.272C41.6192 27.8303 41.6393 27.3767 41.6634 26.911C41.6875 26.4453 41.7156 25.9635 41.7477 25.4657H41.6514L38.568 37.3052H35.4606ZM56.7428 37.3052L56.0804 33.8726H52.2744L51.612 37.3052H47.0713L51.359 19.6964H56.8874L61.2353 37.3052H56.7428ZM55.43 30.2713L54.7194 26.3328C54.6391 25.8912 54.5628 25.4616 54.4906 25.0441C54.4263 24.6266 54.3661 24.2291 54.3099 23.8517C54.2617 23.4663 54.2176 23.109 54.1774 22.7798C54.1453 23.0929 54.1011 23.4382 54.0449 23.8156C53.9967 24.193 53.9365 24.5904 53.8643 25.008C53.792 25.4175 53.7157 25.843 53.6354 26.2847L52.8887 30.2713H55.43ZM68.5101 26.9953H74.6527V36.4862C73.7453 36.8475 72.8179 37.1165 71.8704 37.2931C70.931 37.4618 69.9674 37.5461 68.9798 37.5461C67.5345 37.5461 66.306 37.1928 65.2943 36.4862C64.2906 35.7796 63.5238 34.7478 62.9938 33.3908C62.4639 32.0338 62.1989 30.3877 62.1989 28.4526C62.1989 26.5657 62.5 24.9518 63.1022 23.6108C63.7044 22.2699 64.5716 21.2421 65.7038 20.5275C66.8359 19.8048 68.201 19.4435 69.7988 19.4435C70.7062 19.4435 71.5493 19.5479 72.3281 19.7567C73.115 19.9654 73.8015 20.2304 74.3877 20.5516L73.2194 23.9842C72.7376 23.6791 72.2197 23.4462 71.6657 23.2856C71.1197 23.1251 70.5456 23.0448 69.9434 23.0448C69.1966 23.0448 68.5703 23.2616 68.0645 23.6951C67.5666 24.1207 67.1892 24.743 66.9323 25.562C66.6834 26.381 66.5589 27.3847 66.5589 28.5731C66.5589 29.7293 66.6593 30.7049 66.86 31.4998C67.0608 32.2948 67.3579 32.897 67.7513 33.3065C68.1528 33.716 68.6466 33.9207 69.2327 33.9207C69.4495 33.9207 69.6663 33.9047 69.8831 33.8726C70.108 33.8324 70.3248 33.7842 70.5335 33.728V30.5002H68.5101V26.9953ZM89.0094 19.6964V31.3312C89.0094 32.6882 88.7806 33.8284 88.3229 34.7518C87.8652 35.6752 87.1948 36.3738 86.3115 36.8475C85.4283 37.3132 84.3443 37.5461 83.0596 37.5461C81.1887 37.5461 79.7514 37.0402 78.7477 36.0285C77.744 35.0168 77.2422 33.4871 77.2422 31.4396V19.6964H81.4336V31.2349C81.4336 32.1984 81.5741 32.8809 81.8551 33.2824C82.1362 33.6758 82.5537 33.8726 83.1078 33.8726C83.5012 33.8726 83.8224 33.7882 84.0713 33.6196C84.3202 33.451 84.5049 33.174 84.6253 32.7886C84.7458 32.3951 84.806 31.8692 84.806 31.2108V19.6964H89.0094ZM98.2474 23.0448C97.8379 23.0448 97.4725 23.1732 97.1514 23.4302C96.8302 23.6791 96.5612 24.0444 96.3444 24.5262C96.1276 24.9999 95.963 25.5781 95.8506 26.2606C95.7382 26.9431 95.682 27.7139 95.682 28.5731C95.682 29.7614 95.7823 30.7531 95.9831 31.548C96.1918 32.3429 96.501 32.9371 96.9105 33.3306C97.32 33.724 97.8339 33.9207 98.4521 33.9207C99.0222 33.9207 99.5683 33.8123 100.09 33.5955C100.62 33.3787 101.15 33.1178 101.68 32.8127V36.5705C101.118 36.8997 100.508 37.1446 99.8493 37.3052C99.1989 37.4658 98.5084 37.5461 97.7777 37.5461C96.3805 37.5461 95.2002 37.2008 94.2367 36.5103C93.2811 35.8197 92.5545 34.804 92.0566 33.4631C91.5668 32.1221 91.3219 30.4841 91.3219 28.549C91.3219 27.192 91.4705 25.9555 91.7676 24.8394C92.0727 23.7233 92.5103 22.7637 93.0804 21.9608C93.6505 21.1578 94.337 20.5395 95.14 20.106C95.951 19.6643 96.8663 19.4435 97.8861 19.4435C98.6649 19.4435 99.4117 19.5439 100.126 19.7446C100.849 19.9454 101.564 20.2585 102.27 20.6841L101.162 24.1287C100.696 23.7995 100.227 23.5386 99.7529 23.3459C99.2792 23.1451 98.7773 23.0448 98.2474 23.0448ZM116.422 37.3052H112.231V29.9582H108.509V37.3052H104.318V19.6964H108.509V26.3569H112.231V19.6964H116.422V37.3052ZM119.349 37.3052V19.6964H123.54V37.3052H119.349Z" fill="white"/>
</mask>
<g mask="url(#mask0_164_5424)">
<ellipse cx="63.7513" cy="25.9716" rx="66.5833" ry="43.5185" fill="url(#paint0_linear_164_5424)"/>
</g>
<defs>
<linearGradient id="paint0_linear_164_5424" x1="63.7513" y1="-17.5469" x2="63.7513" y2="69.4902" gradientUnits="userSpaceOnUse">
<stop offset="0.284" stop-color="#DD7373"/>
<stop offset="0.914" stop-color="#FFDBC7"/>
</linearGradient>
</defs>
</svg>
