<svg width="236" height="84" viewBox="0 0 236 84" fill="none" xmlns="http://www.w3.org/2000/svg">
<path d="M63.0676 9.38835C62.5662 9.38835 62.1212 9.48694 61.7324 9.68411C61.3493 9.87566 61.0254 10.1545 60.7606 10.5207C60.5015 10.8869 60.3043 11.3291 60.1691 11.8474C60.0339 12.3657 59.9663 12.9488 59.9663 13.5967C59.9663 14.4699 60.0733 15.2164 60.2874 15.8361C60.5071 16.4502 60.8451 16.9206 61.3015 17.2473C61.7578 17.5685 62.3465 17.729 63.0676 17.729C63.569 17.729 64.0704 17.6727 64.5718 17.56C65.0788 17.4473 65.6281 17.2868 66.2197 17.0783V19.2755C65.6732 19.5008 65.1352 19.6614 64.6056 19.7571C64.076 19.8585 63.4817 19.9092 62.8226 19.9092C61.5493 19.9092 60.5015 19.6473 59.679 19.1233C58.8621 18.5938 58.2565 17.8558 57.8621 16.9093C57.4677 15.9572 57.2706 14.8474 57.2706 13.5798C57.2706 12.6446 57.3973 11.7883 57.6508 11.0108C57.9043 10.2334 58.2762 9.56017 58.7663 8.99117C59.2564 8.42217 59.8621 7.98274 60.5832 7.67289C61.3043 7.36304 62.1324 7.20811 63.0676 7.20811C63.6817 7.20811 64.2958 7.28698 64.9098 7.44473C65.5295 7.59684 66.1211 7.8081 66.6844 8.07852L65.8394 10.208C65.3774 9.98833 64.9126 9.79679 64.4451 9.63341C63.9775 9.47003 63.5183 9.38835 63.0676 9.38835ZM72.5491 10.1151C73.4223 10.1151 74.1744 10.2841 74.8054 10.6221C75.4364 10.9545 75.9237 11.439 76.2673 12.0756C76.611 12.7122 76.7828 13.4897 76.7828 14.408V15.6586H70.69C70.7182 16.3854 70.9351 16.9572 71.3407 17.3741C71.7519 17.7853 72.3209 17.991 73.0477 17.991C73.6505 17.991 74.2026 17.929 74.704 17.8051C75.2054 17.6811 75.7209 17.4952 76.2504 17.2473V19.2417C75.7828 19.4726 75.2927 19.6416 74.78 19.7487C74.273 19.8557 73.6561 19.9092 72.9294 19.9092C71.9829 19.9092 71.1435 19.7346 70.4111 19.3853C69.6844 19.036 69.1126 18.5036 68.6957 17.7882C68.2844 17.0727 68.0788 16.1713 68.0788 15.084C68.0788 13.9798 68.2647 13.0615 68.6365 12.3291C69.014 11.5911 69.5379 11.039 70.2083 10.6728C70.8787 10.301 71.659 10.1151 72.5491 10.1151ZM72.566 11.9489C72.0646 11.9489 71.6477 12.1094 71.3153 12.4305C70.9886 12.7517 70.7998 13.2559 70.7491 13.9432H74.366C74.3603 13.5601 74.2899 13.2192 74.1547 12.9207C74.0251 12.6221 73.8279 12.3855 73.5632 12.2108C73.304 12.0362 72.9716 11.9489 72.566 11.9489ZM84.1348 10.1151C85.1995 10.1151 86.0587 10.5292 86.7122 11.3573C87.3713 12.1855 87.7009 13.3995 87.7009 14.9995C87.7009 16.0699 87.546 16.9713 87.2361 17.7037C86.9263 18.4304 86.4981 18.9797 85.9516 19.3515C85.4052 19.7233 84.777 19.9092 84.0672 19.9092C83.6108 19.9092 83.2193 19.8529 82.8925 19.7402C82.5658 19.6219 82.2869 19.4726 82.0559 19.2924C81.825 19.1064 81.625 18.9093 81.456 18.7008H81.3207C81.3658 18.9262 81.3996 19.1571 81.4221 19.3938C81.4447 19.6304 81.456 19.8614 81.456 20.0867V23.8979H78.8785V10.2926H80.9743L81.3376 11.5179H81.456C81.625 11.2644 81.8306 11.0306 82.0728 10.8165C82.3151 10.6024 82.6052 10.4334 82.9432 10.3095C83.2869 10.1799 83.6841 10.1151 84.1348 10.1151ZM83.3066 12.177C82.8559 12.177 82.4982 12.27 82.2334 12.4559C81.9686 12.6418 81.7743 12.9207 81.6503 13.2925C81.532 13.6643 81.4672 14.1347 81.456 14.7037V14.9826C81.456 15.591 81.5123 16.1065 81.625 16.529C81.7433 16.9516 81.9376 17.2727 82.208 17.4924C82.4841 17.7121 82.8616 17.822 83.3404 17.822C83.7348 17.822 84.0587 17.7121 84.3122 17.4924C84.5657 17.2727 84.7545 16.9516 84.8784 16.529C85.008 16.1009 85.0728 15.5798 85.0728 14.9657C85.0728 14.0418 84.9291 13.346 84.6418 12.8784C84.3545 12.4108 83.9094 12.177 83.3066 12.177ZM98.2049 12.7686C98.2049 13.2756 98.0443 13.7094 97.7232 14.0699C97.4077 14.4249 96.9401 14.653 96.3204 14.7544V14.822C96.9739 14.9009 97.5007 15.1291 97.9007 15.5065C98.3007 15.8783 98.5007 16.3488 98.5007 16.9178C98.5007 17.4586 98.3598 17.9431 98.0781 18.3712C97.7964 18.7938 97.3486 19.129 96.7345 19.3769C96.1204 19.6191 95.3176 19.7402 94.3261 19.7402H89.8304V10.2926H94.3261C95.0641 10.2926 95.7261 10.3714 96.312 10.5292C96.8979 10.6813 97.3598 10.9376 97.6979 11.2982C98.0359 11.6587 98.2049 12.1488 98.2049 12.7686ZM95.8303 16.7826C95.8303 16.4107 95.6838 16.1431 95.3909 15.9798C95.1035 15.8107 94.6754 15.7262 94.1064 15.7262H92.4078V17.9572H94.1571C94.6416 17.9572 95.0416 17.867 95.3571 17.6868C95.6725 17.5065 95.8303 17.2051 95.8303 16.7826ZM95.5937 12.9714C95.5937 12.6784 95.4782 12.4615 95.2472 12.3207C95.0162 12.1798 94.6754 12.1094 94.2247 12.1094H92.4078V13.977H93.9289C94.4754 13.977 94.8895 13.8981 95.1711 13.7404C95.4528 13.5826 95.5937 13.3263 95.5937 12.9714ZM103.208 10.2926V14.0277C103.208 14.2192 103.199 14.4615 103.182 14.7544C103.171 15.0417 103.154 15.3347 103.132 15.6333C103.109 15.9319 103.086 16.1995 103.064 16.4361C103.041 16.6727 103.024 16.8333 103.013 16.9178L107.374 10.2926H110.475V19.7402H107.982V15.9713C107.982 15.6614 107.993 15.3206 108.016 14.9488C108.038 14.5713 108.064 14.2164 108.092 13.884C108.12 13.5516 108.14 13.3009 108.151 13.1319L103.808 19.7402H100.715V10.2926H103.208ZM117.024 19.9092C116.089 19.9092 115.292 19.7402 114.633 19.4022C113.974 19.0586 113.472 18.529 113.129 17.8135C112.785 17.098 112.613 16.1826 112.613 15.0671C112.613 13.9122 112.807 12.9714 113.196 12.2446C113.59 11.5122 114.134 10.9742 114.827 10.6306C115.526 10.2869 116.334 10.1151 117.252 10.1151C117.906 10.1151 118.469 10.1799 118.942 10.3095C119.421 10.4334 119.838 10.5827 120.193 10.7573L119.433 12.7517C119.027 12.5883 118.65 12.4559 118.3 12.3545C117.951 12.2474 117.602 12.1939 117.252 12.1939C116.802 12.1939 116.427 12.301 116.128 12.515C115.83 12.7235 115.607 13.039 115.461 13.4615C115.314 13.884 115.241 14.4136 115.241 15.0502C115.241 15.6755 115.32 16.1938 115.478 16.6051C115.635 17.0163 115.864 17.3234 116.162 17.5262C116.461 17.7234 116.824 17.822 117.252 17.822C117.788 17.822 118.264 17.7515 118.68 17.6107C119.097 17.4642 119.503 17.2614 119.897 17.0023V19.2079C119.503 19.4557 119.089 19.6332 118.655 19.7402C118.227 19.8529 117.683 19.9092 117.024 19.9092ZM121.258 16.1572V14.0446H125.796V16.1572H121.258ZM137.981 23.1289H135.666V19.7402H127.672V10.2926H130.249V17.8051H134.018V10.2926H136.604V17.8558H137.981V23.1289ZM143.483 10.1151C144.356 10.1151 145.108 10.2841 145.739 10.6221C146.37 10.9545 146.857 11.439 147.201 12.0756C147.545 12.7122 147.716 13.4897 147.716 14.408V15.6586H141.624C141.652 16.3854 141.869 16.9572 142.274 17.3741C142.686 17.7853 143.255 17.991 143.981 17.991C144.584 17.991 145.136 17.929 145.638 17.8051C146.139 17.6811 146.655 17.4952 147.184 17.2473V19.2417C146.717 19.4726 146.226 19.6416 145.714 19.7487C145.207 19.8557 144.59 19.9092 143.863 19.9092C142.917 19.9092 142.077 19.7346 141.345 19.3853C140.618 19.036 140.046 18.5036 139.629 17.7882C139.218 17.0727 139.012 16.1713 139.012 15.084C139.012 13.9798 139.198 13.0615 139.57 12.3291C139.948 11.5911 140.472 11.039 141.142 10.6728C141.812 10.301 142.593 10.1151 143.483 10.1151ZM143.5 11.9489C142.998 11.9489 142.581 12.1094 142.249 12.4305C141.922 12.7517 141.734 13.2559 141.683 13.9432H145.3C145.294 13.5601 145.224 13.2192 145.088 12.9207C144.959 12.6221 144.762 12.3855 144.497 12.2108C144.238 12.0362 143.905 11.9489 143.5 11.9489ZM152.39 10.2926V13.9263H155.99V10.2926H158.567V19.7402H155.99V15.8445H152.39V19.7402H149.812V10.2926H152.39ZM169.088 12.2277H165.995V19.7402H163.418V12.2277H160.316V10.2926H169.088V12.2277ZM176.11 10.1151C177.175 10.1151 178.034 10.5292 178.688 11.3573C179.347 12.1855 179.676 13.3995 179.676 14.9995C179.676 16.0699 179.521 16.9713 179.212 17.7037C178.902 18.4304 178.474 18.9797 177.927 19.3515C177.381 19.7233 176.752 19.9092 176.043 19.9092C175.586 19.9092 175.195 19.8529 174.868 19.7402C174.541 19.6219 174.262 19.4726 174.031 19.2924C173.8 19.1064 173.6 18.9093 173.431 18.7008H173.296C173.341 18.9262 173.375 19.1571 173.398 19.3938C173.42 19.6304 173.431 19.8614 173.431 20.0867V23.8979H170.854V10.2926H172.95L173.313 11.5179H173.431C173.6 11.2644 173.806 11.0306 174.048 10.8165C174.291 10.6024 174.581 10.4334 174.919 10.3095C175.262 10.1799 175.66 10.1151 176.11 10.1151ZM175.282 12.177C174.831 12.177 174.474 12.27 174.209 12.4559C173.944 12.6418 173.75 12.9207 173.626 13.2925C173.507 13.6643 173.443 14.1347 173.431 14.7037V14.9826C173.431 15.591 173.488 16.1065 173.6 16.529C173.719 16.9516 173.913 17.2727 174.184 17.4924C174.46 17.7121 174.837 17.822 175.316 17.822C175.71 17.822 176.034 17.7121 176.288 17.4924C176.541 17.2727 176.73 16.9516 176.854 16.529C176.983 16.1009 177.048 15.5798 177.048 14.9657C177.048 14.0418 176.905 13.346 176.617 12.8784C176.33 12.4108 175.885 12.177 175.282 12.177Z" fill="white"/>
<mask id="mask0_152_1819" style="mask-type:alpha" maskUnits="userSpaceOnUse" x="0" y="36" width="234" height="35">
<path d="M12.3064 49.0504L16.3541 36.953H24.4948L16.2176 57.4413V70.1982H8.30425V57.7142L0.00430298 36.953H8.23603L12.3064 49.0504ZM42.7775 70.1982L41.5268 63.7175H34.3411L33.0904 70.1982H24.5176L32.6129 36.953H43.0503L51.2593 70.1982H42.7775ZM40.2988 56.9183L38.9572 49.4825C38.8056 48.6487 38.6616 47.8377 38.5252 47.0493C38.4039 46.261 38.2902 45.5106 38.1841 44.7981C38.0931 44.0705 38.0097 43.3959 37.9339 42.7743C37.8733 43.3655 37.7899 44.0174 37.6838 44.7299C37.5928 45.4424 37.4791 46.1928 37.3427 46.9811C37.2063 47.7543 37.0622 48.5577 36.9106 49.3915L35.5008 56.9183H40.2988ZM66.9496 70.1982L61.2193 47.8452H61.0373C61.1131 48.8458 61.1738 49.816 61.2193 50.7559C61.2799 51.6806 61.3254 52.5599 61.3557 53.3937C61.386 54.2275 61.4012 55.0158 61.4012 55.7586V70.1982H54.0108V36.953H64.8576L70.0195 56.9183H70.1559L75.3405 36.953H86.0964V70.1982H78.5013V55.6222C78.5013 54.7884 78.5165 53.9622 78.5468 53.1436C78.5771 52.3098 78.615 51.4532 78.6605 50.574C78.706 49.6947 78.7591 48.7851 78.8197 47.8452H78.6378L72.8164 70.1982H66.9496ZM107.13 70.1982L105.88 63.7175H98.6941L97.4434 70.1982H88.8706L96.9659 36.953H107.403L115.612 70.1982H107.13ZM104.652 56.9183L103.31 49.4825C103.159 48.6487 103.015 47.8377 102.878 47.0493C102.757 46.261 102.643 45.5106 102.537 44.7981C102.446 44.0705 102.363 43.3959 102.287 42.7743C102.226 43.3655 102.143 44.0174 102.037 44.7299C101.946 45.4424 101.832 46.1928 101.696 46.9811C101.559 47.7543 101.415 48.5577 101.264 49.3915L99.8538 56.9183H104.652ZM129.347 50.7332H140.944V68.652C139.231 69.3341 137.48 69.842 135.691 70.1755C133.918 70.4939 132.099 70.653 130.234 70.653C127.505 70.653 125.186 69.986 123.276 68.652C121.381 67.3179 119.933 65.3699 118.932 62.8079C117.932 60.2459 117.432 57.1381 117.432 53.4846C117.432 49.9221 118 46.875 119.137 44.3433C120.274 41.8117 121.911 39.8712 124.049 38.522C126.186 37.1576 128.763 36.4754 131.78 36.4754C133.493 36.4754 135.085 36.6725 136.556 37.0667C138.041 37.4608 139.337 37.9611 140.444 38.5675L138.238 45.0483C137.329 44.4722 136.351 44.0326 135.305 43.7294C134.274 43.4262 133.19 43.2746 132.053 43.2746C130.643 43.2746 129.461 43.6839 128.506 44.5025C127.566 45.306 126.853 46.4809 126.368 48.0271C125.898 49.5734 125.663 51.4684 125.663 53.712C125.663 55.895 125.853 57.737 126.232 59.2378C126.611 60.7386 127.172 61.8756 127.914 62.6487C128.672 63.4218 129.605 63.8084 130.711 63.8084C131.121 63.8084 131.53 63.7781 131.939 63.7175C132.364 63.6417 132.773 63.5507 133.167 63.4446V57.3504H129.347V50.7332ZM168.05 36.953V58.9194C168.05 61.4814 167.618 63.6341 166.754 65.3775C165.89 67.1208 164.624 68.4397 162.956 69.3341C161.289 70.2134 159.242 70.653 156.816 70.653C153.284 70.653 150.571 69.698 148.676 67.7878C146.781 65.8777 145.833 62.9898 145.833 59.1241V36.953H153.747V58.7375C153.747 60.5567 154.012 61.8452 154.543 62.6032C155.073 63.346 155.861 63.7175 156.907 63.7175C157.65 63.7175 158.257 63.5583 158.727 63.2399C159.197 62.9216 159.545 62.3986 159.773 61.6709C160 60.9281 160.114 59.9351 160.114 58.692V36.953H168.05ZM185.491 43.2746C184.718 43.2746 184.028 43.5171 183.422 44.0022C182.815 44.4722 182.308 45.162 181.898 46.0715C181.489 46.966 181.178 48.0575 180.966 49.346C180.754 50.6346 180.648 52.09 180.648 53.712C180.648 55.9557 180.837 57.8279 181.216 59.3287C181.61 60.8295 182.194 61.9514 182.967 62.6942C183.74 63.437 184.71 63.8084 185.878 63.8084C186.954 63.8084 187.985 63.6038 188.97 63.1945C189.971 62.7851 190.971 62.2924 191.972 61.7164V68.8111C190.911 69.4327 189.759 69.895 188.515 70.1982C187.288 70.5014 185.984 70.653 184.604 70.653C181.966 70.653 179.738 70.0012 177.919 68.6974C176.115 67.3937 174.743 65.476 173.803 62.9443C172.878 60.4126 172.416 57.3201 172.416 53.6666C172.416 51.1046 172.696 48.77 173.257 46.6628C173.833 44.5556 174.659 42.744 175.736 41.228C176.812 39.712 178.108 38.5447 179.624 37.7261C181.155 36.8923 182.884 36.4754 184.809 36.4754C186.279 36.4754 187.689 36.6649 189.038 37.0439C190.403 37.4229 191.752 38.0142 193.086 38.8176L190.994 45.3211C190.115 44.6996 189.228 44.2069 188.334 43.8431C187.439 43.4641 186.492 43.2746 185.491 43.2746ZM219.805 70.1982H211.892V56.3271H204.865V70.1982H196.952V36.953H204.865V49.528H211.892V36.953H219.805V70.1982ZM225.331 70.1982V36.953H233.244V70.1982H225.331Z" fill="white"/>
</mask>
<g mask="url(#mask0_152_1819)">
<ellipse cx="120.362" cy="49.7753" rx="125.709" ry="82.163" fill="url(#paint0_linear_152_1819)"/>
</g>
<defs>
<linearGradient id="paint0_linear_152_1819" x1="120.362" y1="-32.3877" x2="120.362" y2="131.938" gradientUnits="userSpaceOnUse">
<stop offset="0.284" stop-color="#DD7373"/>
<stop offset="0.914" stop-color="#FFDBC7"/>
</linearGradient>
</defs>
</svg>
