<svg width="70" height="70" viewBox="0 0 70 70" fill="none" xmlns="http://www.w3.org/2000/svg">
<path d="M56.5872 18.9969C59.0482 21.4578 59.0482 25.3771 56.6784 27.7469L27.8763 56.7313L14.2956 58.9188C12.8372 59.1922 11.5612 57.9162 11.8346 56.4578L14.0221 42.8771L43.0065 14.075C45.3763 11.7052 49.2956 11.7052 51.6654 14.075L56.5872 18.9969ZM30.0638 40.6896C29.2435 39.8693 29.2435 38.6844 30.0638 37.8641L40.9102 27.0177L38.2669 24.3745L22.7721 39.7782H26.6003V44.1532H30.9753V47.9813L46.3789 32.4865L43.7357 29.8433L32.8893 40.6896C32.5247 41.0542 31.9779 41.2365 31.5221 41.2365C30.9753 41.2365 30.4284 41.0542 30.0638 40.6896ZM19.3086 54.0881L25.9622 52.9032L27.694 51.2625V47.4344H23.319V43.0594H19.4909L17.8503 44.7912L16.6654 51.4448L19.3086 54.0881ZM53.8529 24.9214C54.6732 24.1011 54.6732 22.7339 53.7617 21.8224L48.8398 16.9006C48.0195 16.0802 46.6523 16.0802 45.832 16.9006L41.3659 21.3667L49.3867 29.3875L53.8529 24.9214Z" fill="#DD7373"/>
</svg>
