<svg width="70" height="70" viewBox="0 0 70 70" fill="none" xmlns="http://www.w3.org/2000/svg">
<path d="M40.3067 64.1668H29.69C28.3195 64.1668 27.1337 63.2131 26.8404 61.8743L25.6533 56.3793C24.0697 55.6855 22.5682 54.8178 21.1763 53.7923L15.8183 55.4985C14.5117 55.9152 13.0912 55.3652 12.4058 54.1772L7.08584 44.9868C6.40797 43.7983 6.64151 42.2991 7.64875 41.3731L11.805 37.5814C11.616 35.8638 11.616 34.1307 11.805 32.4131L7.64875 28.6302C6.64003 27.7037 6.40639 26.2027 7.08584 25.0135L12.3942 15.8172C13.0795 14.6293 14.5 14.0793 15.8067 14.496L21.1646 16.2022C21.8764 15.6748 22.6175 15.1879 23.3842 14.7439C24.1202 14.3289 24.8776 13.953 25.6533 13.6181L26.8433 8.12891C27.1352 6.79007 28.3197 5.83494 29.69 5.8335H40.3067C41.677 5.83494 42.8615 6.79007 43.1533 8.12891L44.355 13.621C45.174 13.9813 45.9715 14.3883 46.7438 14.8402C47.464 15.2567 48.1602 15.7134 48.8292 16.2081L54.19 14.5018C55.4958 14.0867 56.9145 14.6365 57.5996 15.8231L62.9079 25.0193C63.5858 26.2078 63.3522 27.7071 62.345 28.6331L58.1888 32.4247C58.3778 34.1423 58.3778 35.8755 58.1888 37.5931L62.345 41.3847C63.3522 42.3108 63.5858 43.81 62.9079 44.9985L57.5996 54.1947C56.9145 55.3814 55.4958 55.9311 54.19 55.516L48.8292 53.8097C48.1508 54.3094 47.4459 54.7718 46.7175 55.1952C45.9528 55.6382 45.1641 56.0384 44.355 56.3939L43.1533 61.8743C42.8603 63.212 41.6761 64.1657 40.3067 64.1668ZM22.2233 47.3347L24.615 49.0847C25.1542 49.4819 25.7161 49.8471 26.2979 50.1785C26.8454 50.4956 27.4091 50.7837 27.9867 51.0418L30.7079 52.2347L32.0408 58.3335H37.9617L39.2946 52.2318L42.0158 51.0389C43.2038 50.515 44.3314 49.8637 45.3788 49.0964L47.7733 47.3464L53.7263 49.2422L56.6867 44.1147L52.0696 39.906L52.3963 36.9543C52.5397 35.6633 52.5397 34.3604 52.3963 33.0693L52.0696 30.1177L56.6896 25.9002L53.7263 20.7697L47.7733 22.6656L45.3788 20.9156C44.3311 20.1447 43.2036 19.4886 42.0158 18.9585L39.2946 17.7656L37.9617 11.6668H32.0408L30.7021 17.7685L27.9867 18.9585C27.4086 19.2124 26.8448 19.4977 26.2979 19.8131C25.7197 20.1436 25.1607 20.5068 24.6238 20.901L22.2292 22.651L16.2792 20.7552L13.3129 25.9002L17.93 30.1031L17.6033 33.0577C17.4598 34.3487 17.4598 35.6516 17.6033 36.9427L17.93 39.8943L13.3129 44.1031L16.2733 49.2306L22.2233 47.3347ZM34.9867 46.6668C28.5433 46.6668 23.32 41.4435 23.32 35.0002C23.32 28.5568 28.5433 23.3335 34.9867 23.3335C41.43 23.3335 46.6533 28.5568 46.6533 35.0002C46.6453 41.4402 41.4267 46.6588 34.9867 46.6668ZM34.9867 29.1668C31.7999 29.1701 29.2055 31.7301 29.1598 34.9166C29.1142 38.103 31.6342 40.7364 34.8195 40.8309C38.0049 40.9255 40.6766 38.4462 40.82 35.2627V36.4293V35.0002C40.82 31.7785 38.2083 29.1668 34.9867 29.1668Z" fill="#DD7373"/>
</svg>
