<svg width="70" height="70" viewBox="0 0 70 70" fill="none" xmlns="http://www.w3.org/2000/svg">
<path d="M58.0456 22.5884C59.2305 27.328 57.7721 32.4321 54.3086 35.8957C50.8451 39.3592 46.0143 40.7264 41.2747 39.6326L24.5039 56.3123C23.1367 57.7707 21.2227 58.4998 19.3086 58.4998C17.3034 58.4998 15.3893 57.7707 14.0221 56.3123C12.5638 54.9451 11.8346 53.0311 11.8346 51.117C11.8346 49.1118 12.5638 47.1978 14.0221 45.8306L30.7018 29.0597C29.6081 24.3201 30.9753 19.3983 34.4388 16.0259C37.9023 12.4712 42.9154 11.104 47.7461 12.2889C48.931 12.5623 49.7513 13.4738 50.1159 14.5675C50.3893 15.6613 50.1159 16.8462 49.2956 17.6665L43.918 22.953L44.3737 25.9608L47.3815 26.4165L52.7591 21.0389C53.4883 20.3097 54.6732 19.9451 55.7669 20.3097C56.9518 20.5832 57.7721 21.4946 58.0456 22.5884ZM51.2096 32.7967C53.1237 30.9738 54.1263 28.4217 54.1263 25.8696L48.8398 31.1561L40.6367 29.6978L39.2695 21.4946L44.4648 16.2993H44.3737C41.8216 16.2993 39.3607 17.2108 37.5378 19.1248C34.8945 21.6769 34.0742 25.505 35.2591 29.0597L35.6237 30.3358L17.0299 48.8384C16.4831 49.4764 16.2096 50.2056 16.2096 51.117C16.2096 51.9373 16.4831 52.6665 17.0299 53.3045C18.2148 54.3983 20.3112 54.3983 21.4961 53.3045L39.9987 34.7108L41.2747 35.1665C44.8294 36.2603 48.6576 35.4399 51.2096 32.7967ZM19.8555 49.1118C20.5846 49.1118 21.3138 49.7498 21.3138 50.5701C21.3138 51.2993 20.5846 52.0285 19.8555 52.0285C19.0352 52.0285 18.3971 51.2993 18.3971 50.5701C18.3971 49.7498 19.0352 49.1118 19.8555 49.1118Z" fill="#DD7373"/>
</svg>
